<?xml version="1.0" encoding="UTF-8" standalone="no"?>
<svg
	xmlns:dc="http://purl.org/dc/elements/1.1/"
	xmlns:cc="http://creativecommons.org/ns#"
	xmlns:rdf="http://www.w3.org/1999/02/22-rdf-syntax-ns#"
	xmlns:svg="http://www.w3.org/2000/svg"
	xmlns="http://www.w3.org/2000/svg"
	xmlns:xlink="http://www.w3.org/1999/xlink"
	xmlns:sodipodi="http://sodipodi.sourceforge.net/DTD/sodipodi-0.dtd"
	xmlns:inkscape="http://www.inkscape.org/namespaces/inkscape"
	width="420"
	height="644"
	viewBox="90 60 420 644"
	sodipodi:docname="Emblem.svg"
	inkscape:output_extension="org.inkscape.output.svg.inkscape"
	version="1.1"
	id="svg3684"
	inkscape:version="0.92.1 r15371"
	inkscape:export-filename="F:\Code Projects\REACH\Emblem.svg.png"
	inkscape:export-xdpi="1000"
	inkscape:export-ydpi="1000">
	<defs id="defs3688">
		<linearGradient inkscape:collect="always" id="linearGradient4589">
			<stop style="stop-color:#000000;stop-opacity:1" offset="0" id="stop4585"/>
			<stop style="stop-color:#00ffff;stop-opacity:0.98994976" offset="1" id="stop4587"/>
		</linearGradient>
		<linearGradient inkscape:collect="always" id="linearGradient5116">
			<stop style="stop-color:#000000;stop-opacity:1;" offset="0" id="stop5112"/>
			<stop style="stop-color:#000000;stop-opacity:0;" offset="1" id="stop5114"/>
		</linearGradient>
		<linearGradient inkscape:collect="always" id="linearGradient5088">
			<stop style="stop-color:#00ffff;stop-opacity:0.98994976" offset="0" id="stop5084"/>
			<stop style="stop-color:#000000;stop-opacity:1" offset="1" id="stop5086"/>
		</linearGradient>
		<inkscape:path-effect
			effect="skeletal"
			id="path-effect3789"
			is_visible="true"
			pattern="m 1.1543303,-61.189192 c 0,-2.76 2.24,-5 5,-5 2.76,0 4.9999997,2.24 4.9999997,5 0,2.76 -2.2399997,5 -4.9999997,5 -2.76,0 -5,-2.24 -5,-5 z"
			copytype="single_stretched"
			prop_scale="1"
			scale_y_rel="false"
			spacing="0"
			normal_offset="0"
			tang_offset="0"
			prop_units="false"
			vertical_pattern="false"
			fuse_tolerance="0"/>
		<inkscape:path-effect effect="bspline" id="path-effect3787" is_visible="true" weight="33.333333" steps="2" helper_size="0" apply_no_weight="true" apply_with_weight="true" only_selected="false"/>
		<linearGradient
			inkscape:collect="always"
			xlink:href="#linearGradient5088"
			id="linearGradient5092"
			gradientUnits="userSpaceOnUse"
			x1="89.50676"
			y1="704.57697"
			x2="594.5954"
			y2="-70.604866"
			gradientTransform="matrix(0.82559756,0,0,0.81219944,45.711836,63.653271)"/>
		<linearGradient inkscape:collect="always" xlink:href="#linearGradient5116" id="linearGradient5118" x1="300" y1="60" x2="300" y2="1663.6848" gradientUnits="userSpaceOnUse" gradientTransform="translate(0,-2)"/>
		<linearGradient
			inkscape:collect="always"
			xlink:href="#linearGradient4589"
			id="linearGradient4591"
			x1="594.60278"
			y1="-58.123207"
			x2="89.5"
			y2="704.5"
			gradientUnits="userSpaceOnUse"
			gradientTransform="matrix(0.82557449,0,0,0.82557449,45.719484,54.293071)"/>
	</defs>
	<sodipodi:namedview
		pagecolor="#ffffff"
		bordercolor="#666666"
		borderopacity="1"
		objecttolerance="10"
		gridtolerance="10"
		guidetolerance="10"
		inkscape:pageopacity="0"
		inkscape:pageshadow="2"
		inkscape:window-width="690"
		inkscape:window-height="730"
		id="namedview3686"
		showgrid="false"
		inkscape:snap-bbox="true"
		inkscape:snap-global="true"
		inkscape:snap-bbox-edge-midpoints="true"
		inkscape:bbox-nodes="true"
		inkscape:bbox-paths="true"
		inkscape:snap-bbox-midpoints="true"
		inkscape:object-paths="true"
		inkscape:snap-intersection-paths="true"
		inkscape:snap-smooth-nodes="true"
		inkscape:snap-midpoints="true"
		inkscape:snap-object-midpoints="true"
		inkscape:snap-center="true"
		inkscape:snap-text-baseline="true"
		inkscape:snap-page="true"
		inkscape:zoom="0.63354131"
		inkscape:cx="295.82837"
		inkscape:cy="687.61511"
		inkscape:window-x="592"
		inkscape:window-y="0"
		inkscape:window-maximized="0"
		inkscape:current-layer="svg3684"/>
	<rect
		style="opacity:0.9;fill:url(#linearGradient5118);fill-opacity:1;stroke:#000000;stroke-width:0.5;stroke-linecap:round;stroke-linejoin:round;stroke-miterlimit:4;stroke-dasharray:none"
		id="rect3797"
		width="420"
		height="644"
		x="90"
		y="58"
		rx="2.7755599e-017"/>
	<path
		d="M 302.66795,132.82534 C 270.06159,253.787 201.06071,489.05311 175.29555,631.17466 233.44311,560.45223 282.97286,506.12904 320.56898,484.59522 c 41.50899,-23.77503 66.09751,54.70034 104.13547,146.497 C 395.54513,488.46188 333.95908,256.10195 302.66795,132.82534 Z m -1.2208,125.27509 9.73172,111.29654 c 1.15558,13.21338 34.9391,23.16163 34.9391,23.16163 0,0 -31.37791,-7.69106 -33.73976,1.45836 l -10.58289,40.9973 v 0 0 l -11.25789,-41.51561 c -2.51695,-9.28191 -34.24004,-0.66355 -34.24004,-0.66355 0,0 33.90087,-10.30156 35.06966,-23.23067 z"
		style="opacity:1;fill:url(#linearGradient5092);fill-opacity:1;fill-rule:evenodd;stroke:url(#linearGradient4591);stroke-width:1.65114653;stroke-linecap:butt;stroke-linejoin:round;stroke-miterlimit:4;stroke-dasharray:none;stroke-opacity:1"
		id="path3682"
		inkscape:connector-curvature="0"
		sodipodi:nodetypes="ccscccscscccscsc"/>
	<path
		style="fill:#666666;fill-opacity:1;stroke:none;stroke-width:1px;stroke-linecap:butt;stroke-linejoin:miter;stroke-opacity:1"
		d="m 511.15434,105.81081 c 0,0.92479 -10.47274,1.67206 -28.81002,2.50857 -15.52061,0.70802 -47.32177,1.82501 -75.70773,4.48738 -30.73301,2.88587 -67.30358,8.29343 -103.96864,20.01858 -4.08563,1.30294 -8.17752,2.68001 -12.27928,4.12991 -33.86125,11.96936 -65.57816,27.96831 -92.0671,42.30398 -28.70124,15.54222 -61.43473,35.03852 -76.93551,44.05717 -18.6966,10.87804 -29.693495,16.88672 -30.231734,16.04034 -0.504202,-0.79285 9.513444,-8.33012 27.409014,-20.51823 16.70896,-11.37996 44.84829,-29.89425 75.42512,-47.36649 26.42665,-15.10954 58.31523,-31.64099 93.06851,-43.93754 4.19892,-1.48568 8.39339,-2.89387 12.58592,-4.22307 37.77803,-11.94478 75.06973,-16.89795 106.32472,-18.93216 30.29097,-1.9745 59.34313,-1.52214 76.34666,-0.95686 18.37416,0.61085 28.84007,1.53569 28.84007,2.38842 z"
		id="path3785"
		inkscape:connector-curvature="0"
		inkscape:path-effect="#path-effect3787;#path-effect3789"
		inkscape:original-d="m 511.15434,105.81081 c -69.60822,-0.001 -139.99812,-0.001 -210,0 -69.99988,44.51487 -139.999,89.02962 -210.00001,133.54593"
		sodipodi:nodetypes="ccc"/>
	<rect style="fill:#999999;stroke:#000000" id="rect3794" width="0" height="0" x="0" y="0" transform="translate(90,60)"/>
</svg>
